# xmcd
#
# Track frame offsets:
#	150
#	10140
#	20642
#	34320
#	45261
#	55402
#	65722
#	76414
#	86342
#	97837
#	109794
#	120868
#	131932
#	141462
#	154785
#	166991
#	182046
#	194570
#	207662
#	219566
#	230079
#	243173
#	254956
#	266455
#	277376
#	287076
#	298453
#	309672
#	321014
#	331169
#	343557
#
# Disc length: 4719 seconds
#
# Revision: 1
# Processed by: cddbd v1.5.2PL0 Copyright (c) Steve Scherf et al.
# Submitted via: EasyCDDAExtractor 8.2.3.1
#
DISCID=e5126d1f
DTITLE=Brenda Lee - Little Miss Dynamite Vol4
DYEAR=1962
DGENRE=Crossover
TTITLE0=Tables Are Turning
TTITLE1=Funny Feelin'
TTITLE2=Eventually
TTITLE3=Dum Dum
TTITLE4=Let Me Be The One
TTITLE5=Speak To Me Pretty
TTITLE6=Time Is Not Enough
TTITLE7=Here Comes That Feeling
TTITLE8=Just Forget
TTITLE9=Break It To Me Gently
TTITLE10=Fool #1
TTITLE11=Anybody But Me
TTITLE12=So Deep
TTITLE13=Only You (And You Alone)
TTITLE14=You've Got Me Crying Again
TTITLE15=It's The Talk Of The Town
TTITLE16=You Always Hurt The One You Love
TTITLE17=I Miss You So
TTITLE18=I'll Be Seeing You
TTITLE19=Lazy River
TTITLE20=Send Me Some Lovin'
TTITLE21=Hold Me Little
TTITLE22=I'll Always Be In Love With You
TTITLE23=Organ Grinder's Swing
TTITLE24=Let The Four Winds Blow
TTITLE25=Everybody Loves Me But You
TTITLE26=Heart In Hand
TTITLE27=She'll Never Know
TTITLE28=Why Me?
TTITLE29=It Takes One To Know One
TTITLE30=Sweet Lovin'
EXTD=
EXTT0=
EXTT1=
EXTT2=
EXTT3=
EXTT4=
EXTT5=
EXTT6=
EXTT7=
EXTT8=
EXTT9=
EXTT10=
EXTT11=
EXTT12=
EXTT13=
EXTT14=
EXTT15=
EXTT16=
EXTT17=
EXTT18=
EXTT19=
EXTT20=
EXTT21=
EXTT22=
EXTT23=
EXTT24=
EXTT25=
EXTT26=
EXTT27=
EXTT28=
EXTT29=
EXTT30=
PLAYORDER=
